# xmcd CD database generated by RipIT
#
# Track frame offsets:
# 150
# 20772
# 38043
# 61958
# 83650
# 104883
# 132374
# 155722
# 179617
# 216529
# 245314
# 263253
# 301859
# 323074
#
# Disc length: 4662 seconds
#
# Revision: 0
# Processed by: cddbd v1.5.2PL0 Copyright (c) Steve Scherf et al.
# Submitted via: RipIT 3.9.0 www.suwald.com/ripit/ripit.html on 2014-09-05 at 21:48
#
DISCID=c312340e
DTITLE=Abi Wallenstein and BluesCulture - in Concert
DYEAR=2009
DGENRE=Blues
TTITLE0=Don't Start Cryin'
TTITLE1=Drive Me Crazy
TTITLE2=Chain Of Fools
TTITLE3=Ramona
TTITLE4=Blues Culture
TTITLE5=Leaving To Stay
TTITLE6=Grinnin' In Your Face
TTITLE7=Alabama
TTITLE8=The Hip Shake
TTITLE9=True Love Of My Live
TTITLE10=Destination Mississipi
TTITLE11=Silver City
TTITLE12=Who Is He (And What Is He To You)
TTITLE13=Can't Be Satisfied
EXTD=
EXTT0=
EXTT1=
EXTT2=
EXTT3=
EXTT4=
EXTT5=
EXTT6=
EXTT7=
EXTT8=
EXTT9=
EXTT10=
EXTT11=
EXTT12=
EXTT13=
PLAYORDER=
